HIERARCHY
ROOT Hips
{
	OFFSET 0.000000 0.000000 0.000000
	CHANNELS 6 Xposition Yposition Zposition Zrotation Yrotation Xrotation 
	JOINT LHipJoint
	{
		OFFSET 0.000000 0.000000 0.000000
		CHANNELS 3 Zrotation Yrotation Xrotation
		JOINT LeftUpLeg
		{
			OFFSET 1.363060 -1.794630 0.839290
			CHANNELS 3 Zrotation Yrotation Xrotation
			JOINT LeftLeg
			{
				OFFSET 2.448110 -6.726130 0.000000
				CHANNELS 3 Zrotation Yrotation Xrotation
				JOINT LeftFoot
				{
					OFFSET 2.562200 -7.039590 0.000000
					CHANNELS 3 Zrotation Yrotation Xrotation
					JOINT LeftToeBase
					{
						OFFSET 0.157640 -0.433110 2.322550
						CHANNELS 3 Zrotation Yrotation Xrotation
						End Site
						{
							OFFSET 0.000000 0.000000 0.000000
						}
					}
				}
			}
		}
	}
	JOINT RHipJoint
	{
		OFFSET 0.000000 0.000000 0.000000
		CHANNELS 3 Zrotation Yrotation Xrotation
		JOINT RightUpLeg
		{
			OFFSET -1.305520 -1.794630 0.839290
			CHANNELS 3 Zrotation Yrotation Xrotation
			JOINT RightLeg
			{
				OFFSET -2.542530 -6.985550 0.000000
				CHANNELS 3 Zrotation Yrotation Xrotation
				JOINT RightFoot
				{
					OFFSET -2.568260 -7.056230 0.000000
					CHANNELS 3 Zrotation Yrotation Xrotation
					JOINT RightToeBase
					{
						OFFSET -0.164730 -0.452590 2.363150
						CHANNELS 3 Zrotation Yrotation Xrotation
						End Site
						{
							OFFSET 0.000000 0.000000 0.000000
						}
					}
				}
			}
		}
	}
	JOINT LowerBack
	{
		OFFSET 0.000000 0.000000 0.000000
		CHANNELS 3 Zrotation Yrotation Xrotation
		JOINT Spine
		{
			OFFSET 0.028270 2.035590 -0.193380
			CHANNELS 3 Zrotation Yrotation Xrotation
			JOINT Spine1
			{
				OFFSET 0.056720 2.048850 -0.042750
				CHANNELS 3 Zrotation Yrotation Xrotation
				JOINT Neck
				{
					OFFSET 0.000000 0.000000 0.000000
					CHANNELS 3 Zrotation Yrotation Xrotation
					JOINT Neck1
					{
						OFFSET -0.054170 1.746240 0.172020
						CHANNELS 3 Zrotation Yrotation Xrotation
						JOINT Head
						{
							OFFSET 0.104070 1.761360 -0.123970
							CHANNELS 3 Zrotation Yrotation Xrotation
							End Site
							{
								OFFSET 0.000000 0.000000 0.000000
							}
						}
					}
				}
				JOINT LeftShoulder
				{
					OFFSET 0.000000 0.000000 0.000000
					CHANNELS 3 Zrotation Yrotation Xrotation
					JOINT LeftArm
					{
						OFFSET 3.362410 1.200890 -0.311210
						CHANNELS 3 Zrotation Yrotation Xrotation
						JOINT LeftForeArm
						{
							OFFSET 4.983000 -0.000000 -0.000000
							CHANNELS 3 Zrotation Yrotation Xrotation
							JOINT LeftHand
							{
								OFFSET 3.483560 -0.000000 -0.000000
								CHANNELS 3 Zrotation Yrotation Xrotation
								JOINT LeftFingerBase
								{
									OFFSET 0.000000 0.000000 0.000000
									CHANNELS 3 Zrotation Yrotation Xrotation
									JOINT LeftHandIndex1
									{
										OFFSET 0.715260 -0.000000 -0.000000
										CHANNELS 3 Zrotation Yrotation Xrotation
										End Site
										{
											OFFSET 0.000000 0.000000 0.000000
										}
									}
								}
								JOINT LThumb
								{
									OFFSET 0.000000 0.000000 0.000000
									CHANNELS 3 Zrotation Yrotation Xrotation
									End Site
									{
										OFFSET 0.000000 0.000000 0.000000
									}
								}
							}
						}
					}
				}
				JOINT RightShoulder
				{
					OFFSET 0.000000 0.000000 0.000000
					CHANNELS 3 Zrotation Yrotation Xrotation
					JOINT RightArm
					{
						OFFSET -3.136600 1.374050 -0.404650
						CHANNELS 3 Zrotation Yrotation Xrotation
						JOINT RightForeArm
						{
							OFFSET -5.241900 -0.000000 -0.000000
							CHANNELS 3 Zrotation Yrotation Xrotation
							JOINT RightHand
							{
								OFFSET -3.444170 -0.000000 -0.000000
								CHANNELS 3 Zrotation Yrotation Xrotation
								JOINT RightFingerBase
								{
									OFFSET 0.000000 0.000000 0.000000
									CHANNELS 3 Zrotation Yrotation Xrotation
									JOINT RightHandIndex1
									{
										OFFSET -0.622530 -0.000000 -0.000000
										CHANNELS 3 Zrotation Yrotation Xrotation
										End Site
										{
											OFFSET 0.000000 0.000000 0.000000
										}
									}
								}
								JOINT RThumb
								{
									OFFSET 0.000000 0.000000 0.000000
									CHANNELS 3 Zrotation Yrotation Xrotation
									End Site
									{
										OFFSET 0.000000 0.000000 0.000000
									}
								}
							}
						}
					}
				}
			}
		}
	}
}
MOTION
Frames: 11
Frame Time: 0.008333
13.728085 16.923781 1.216293 13.731287 -89.442824 16.016535 -8.975274 -0.065050 4.782321 -1.681084 -18.559183 -37.255794 -0.769052 -0.499375 23.702598 3.780185 14.846063 -20.883785 -3.276400 0.000000 -32.972400 7.659559 0.260294 3.697963 4.794798 15.016721 -35.345732 1.479400 0.272657 24.139488 -3.813517 -10.301710 -22.325470 2.494700 0.000000 -52.920300 1.864188 -1.914475 -6.404312 -0.025880 -2.262344 -4.096287 -4.927214 -2.370753 0.298957 9.468312 -12.221670 -12.004648 -1.706426 -0.049890 -1.395019 0.000000 0.000000 0.000000 4.039970 7.193108 2.330400 -67.019540 2.328634 -1.165741 -1.139546 -61.085066 -0.062542 23.171204 -12.164782 -2.592645 -0.253490 0.311111 -0.000000 0.000000 0.000000 0.000000 0.000000 0.000000 0.000000 6.557642 -7.579213 1.948003 67.306485 11.120169 -4.222162 1.232968 54.599703 -0.035256 -13.228570 14.313833 -1.733282 0.176455 -0.366677 -0.000000 0.000000 0.000000 0.000000 0.000000 0.000000 0.000000 
13.701541 16.853403 1.215750 17.405352 -89.450642 13.094214 -8.842930 -0.110132 4.803819 -1.594601 -18.872136 -39.089256 -0.737226 -0.379620 25.912305 3.916983 15.096678 -21.904118 -3.600600 -0.000000 -32.487300 7.729821 0.383760 3.824365 4.315183 15.634869 -37.501107 1.340949 0.020872 27.036642 -3.937890 -10.437245 -23.550269 2.787500 0.000000 -52.027200 1.844891 -1.929478 -6.501777 -0.040953 -2.287894 -4.126144 -4.983652 -2.404429 0.313091 9.667191 -12.259381 -12.213497 -1.739754 -0.049061 -1.466663 0.000000 0.000000 0.000000 3.812611 7.246603 2.402891 -68.304253 2.733834 -1.066768 -1.187493 -59.555033 -0.058690 22.967433 -12.150263 -2.562565 -0.243317 0.297220 -0.000000 0.000000 0.000000 0.000000 0.000000 0.000000 0.000000 6.996363 -7.653309 2.023835 68.728414 10.723102 -3.934295 1.310847 53.037866 -0.032125 -12.818555 14.097915 -1.652913 0.172049 -0.355000 0.000000 0.000000 0.000000 0.000000 0.000000 0.000000 0.000000 
13.675517 16.773355 1.214214 21.701146 -89.407006 9.539117 -8.703697 -0.158951 4.815624 -1.550078 -19.171740 -40.993768 -0.709361 -0.246117 28.301784 4.050516 15.299858 -23.020869 -3.953800 0.000000 -31.898400 7.822554 0.516638 3.934640 3.821076 16.150666 -39.699051 1.202949 -0.242879 30.043833 -4.042891 -10.525449 -24.786436 3.076899 -0.000000 -51.082300 1.812598 -1.963404 -6.576985 -0.056546 -2.330494 -4.151044 -5.034429 -2.455402 0.329376 9.871402 -12.298086 -12.428107 -1.769733 -0.047817 -1.541044 0.000000 0.000000 0.000000 3.607018 7.296084 2.481599 -69.528758 3.126085 -1.083713 -1.231096 -58.015354 -0.055277 22.766784 -12.125490 -2.531086 -0.233271 0.284195 -0.000000 0.000000 0.000000 0.000000 0.000000 0.000000 0.000000 7.434057 -7.740550 2.104844 70.059436 10.339425 -3.734004 1.382783 51.452571 -0.029447 -12.440377 13.840803 -1.573751 0.167747 -0.343538 -0.000000 0.000000 0.000000 0.000000 0.000000 0.000000 0.000000 
13.650271 16.683112 1.211898 26.309809 -89.303183 5.659915 -8.568506 -0.216841 4.820394 -1.541102 -19.473471 -42.966307 -0.681773 -0.098135 30.861642 4.180676 15.465705 -24.220759 -4.332700 -0.000000 -31.202200 7.926853 0.655542 4.028040 3.314388 16.569219 -41.926517 1.064187 -0.515684 33.143405 -4.135813 -10.600517 -26.032737 3.367000 -0.000000 -50.010000 1.763212 -2.017889 -6.630745 -0.073998 -2.390989 -4.172103 -5.080089 -2.524321 0.342966 10.079698 -12.333035 -12.644505 -1.797774 -0.046338 -1.617054 0.000000 0.000000 0.000000 3.417930 7.325524 2.565919 -70.684128 3.526130 -1.207933 -1.268203 -56.519618 -0.052343 22.582758 -12.092459 -2.500206 -0.223550 0.272157 -0.000000 0.000000 0.000000 0.000000 0.000000 0.000000 0.000000 7.870131 -7.834399 2.191444 71.289755 9.954641 -3.606949 1.447056 49.891993 -0.027182 -12.092726 13.557655 -1.497391 0.163556 -0.332537 -0.000000 0.000000 0.000000 0.000000 0.000000 0.000000 0.000000 
13.625536 16.582116 1.209138 30.832267 -89.140966 1.862685 -8.447678 -0.285212 4.825120 -1.557214 -19.790179 -45.011800 -0.650277 0.065078 33.577098 4.307806 15.607990 -25.484099 -4.732201 -0.000000 -30.415101 8.032787 0.798381 4.105729 2.800786 16.889767 -44.178751 0.924036 -0.792940 36.313153 -4.222409 -10.686731 -27.283242 3.660800 -0.000000 -48.814000 1.692798 -2.090626 -6.671905 -0.094856 -2.466683 -4.191250 -5.121299 -2.608325 0.353043 10.292238 -12.367663 -12.861828 -1.824722 -0.044720 -1.694299 0.000000 0.000000 0.000000 3.241655 7.333079 2.653750 -71.763437 3.942156 -1.414558 -1.297357 -55.108845 -0.049883 22.433344 -12.054858 -2.472720 -0.214360 0.261139 -0.000000 0.000000 0.000000 0.000000 0.000000 0.000000 0.000000 8.306570 -7.936135 2.282818 72.408033 9.561255 -3.529621 1.503302 48.397038 -0.025259 -11.777316 13.270381 -1.426531 0.159572 -0.322195 -0.000000 0.000000 0.000000 0.000000 0.000000 0.000000 0.000000 
13.601206 16.469947 1.206323 34.857966 -88.930636 -1.436416 -8.347497 -0.362329 4.836547 -1.583272 -20.128808 -47.137133 -0.610696 0.244387 36.430346 4.432220 15.741751 -26.786574 -5.146100 -0.000000 -29.569200 8.133831 0.946246 4.170055 2.288414 17.117173 -46.455111 0.780900 -1.070094 39.534558 -4.308365 -10.807272 -28.529411 3.963100 -0.000000 -47.533900 1.604006 -2.176196 -6.710302 -0.119496 -2.552683 -4.211633 -5.159673 -2.702471 0.355112 10.506971 -12.397915 -13.075569 -1.852225 -0.043202 -1.771236 0.000000 0.000000 0.000000 3.070815 7.304351 2.743448 -72.759987 4.399504 -1.686875 -1.316697 -53.831587 -0.047888 22.335844 -12.014248 -2.450727 -0.205803 0.251086 -0.000000 0.000000 0.000000 0.000000 0.000000 0.000000 0.000000 8.743242 -8.037582 2.379146 73.404589 9.143055 -3.484149 1.551303 47.009519 -0.023628 -11.498753 13.002185 -1.363870 0.155892 -0.312718 0.000000 0.000000 0.000000 0.000000 0.000000 0.000000 0.000000 
13.576739 16.346197 1.203746 38.149003 -88.684239 -3.986935 -8.268575 -0.444861 4.860934 -1.603716 -20.491694 -49.351351 -0.559088 0.439006 39.401351 4.554240 15.880189 -28.102195 -5.568100 -0.000001 -28.709300 8.228612 1.101322 4.227014 1.781651 17.264001 -48.763532 0.632126 -1.343947 42.796937 -4.399196 -10.983739 -29.766624 4.280499 -0.000000 -46.199800 1.503563 -2.268470 -6.759001 -0.146800 -2.644136 -4.235123 -5.195940 -2.801878 0.352647 10.724861 -12.432984 -13.288465 -1.880172 -0.041748 -1.848430 0.000000 0.000000 0.000000 2.902781 7.255885 2.832331 -73.670647 4.886098 -1.984447 -1.326244 -52.703587 -0.046325 22.308688 -11.976407 -2.437524 -0.198047 0.241939 -0.000000 0.000000 0.000000 0.000000 0.000000 0.000000 0.000000 9.182122 -8.146028 2.477956 74.270097 8.702598 -3.437221 1.592054 45.754984 -0.022229 -11.269327 12.775975 -1.312704 0.152730 -0.304207 0.000000 0.000000 0.000000 0.000000 0.000000 0.000000 0.000000 
13.551875 16.210720 1.201717 40.609722 -88.411884 -5.685798 -8.209105 -0.530583 4.902452 -1.604238 -20.876736 -51.659477 -0.492033 0.647057 42.469066 4.673747 16.032982 -29.405360 -5.992000 0.000000 -27.886200 8.317705 1.265037 4.282422 1.286382 17.341682 -51.111767 0.475671 -1.613046 46.089489 -4.498395 -11.230962 -30.986687 4.618301 -0.000000 -44.884800 1.401771 -2.362292 -6.828807 -0.174776 -2.737503 -4.264298 -5.231356 -2.903076 0.344657 10.943880 -12.472097 -13.499115 -1.909315 -0.040474 -1.925240 0.000000 0.000000 0.000000 2.732369 7.186994 2.918885 -74.493243 5.406998 -2.282919 -1.325827 -51.744928 -0.045141 22.365239 -11.946635 -2.435510 -0.191140 0.233602 -0.000000 0.000000 0.000000 0.000000 0.000000 0.000000 0.000000 9.621799 -8.258305 2.578208 75.000817 8.233453 -3.369069 1.626178 44.653986 -0.021043 -11.101399 12.611078 -1.275832 0.150227 -0.296743 0.000000 0.000000 0.000000 0.000000 0.000000 0.000000 0.000000 
13.526311 16.063546 1.200456 42.300539 -88.120880 -6.586966 -8.166322 -0.618991 4.963598 -1.574548 -21.279147 -54.062569 -0.406888 0.865608 45.612173 4.790424 16.206166 -30.673789 -6.412700 -0.000000 -27.150200 8.402453 1.437245 4.342093 0.805307 17.361555 -53.506879 0.309797 -1.877569 49.403774 -4.607442 -11.556127 -32.181594 4.980501 -0.000000 -43.671300 1.308020 -2.453944 -6.928775 -0.201290 -2.830491 -4.300963 -5.266390 -3.003838 0.331899 11.161681 -12.515302 -13.707504 -1.939797 -0.039414 -2.001485 0.000000 0.000000 0.000000 2.555895 7.103680 3.001940 -75.227735 5.955052 -2.558427 -1.316198 -50.957783 -0.044285 22.513976 -11.931629 -2.446887 -0.185100 0.225983 -0.000000 0.000000 0.000000 0.000000 0.000000 0.000000 0.000000 10.059270 -8.373213 2.678450 75.597223 7.735865 -3.263359 1.654458 43.712916 -0.020054 -11.008346 12.520894 -1.255454 0.148512 -0.290333 0.000000 0.000000 0.000000 0.000000 0.000000 0.000000 0.000000 
13.499808 15.905002 1.200064 43.366670 -87.816594 -6.831684 -8.137491 -0.710792 5.044992 -1.509575 -21.691426 -56.556020 -0.302259 1.091453 48.808660 4.903783 16.401630 -31.891379 -6.826200 -0.000000 -26.545901 8.483879 1.616742 4.410852 0.339033 17.334266 -55.952817 0.133255 -2.138552 52.731457 -4.725899 -11.957939 -33.344560 5.368400 -0.000001 -42.643100 1.227719 -2.541034 -7.064828 -0.224864 -2.921576 -4.345835 -5.300689 -3.102675 0.316867 11.376071 -12.564091 -13.915469 -1.971116 -0.038503 -2.077635 0.000000 0.000000 0.000000 2.372396 7.019114 3.080628 -75.876418 6.509566 -2.789396 -1.298922 -50.326559 -0.043683 22.757223 -11.940257 -2.473653 -0.179913 0.219014 -0.000000 0.000000 0.000000 0.000000 0.000000 0.000000 0.000000 10.490516 -8.491836 2.776982 76.065169 7.218563 -3.108813 1.677750 42.922534 -0.019250 -11.001976 12.512583 -1.253270 0.147675 -0.284918 0.000000 0.000000 0.000000 0.000000 0.000000 0.000000 0.000000 
13.472213 15.735721 1.200618 43.956593 -87.504085 -6.568726 -8.120529 -0.807115 5.145169 -1.409564 -22.103661 -59.127357 -0.178198 1.321831 52.036288 5.013060 16.616803 -33.049807 -7.229600 0.000000 -26.107600 8.562367 1.801604 4.491100 -0.110047 17.267367 -58.445343 -0.054282 -2.397287 56.060777 -4.851379 -12.425988 -34.468574 5.780300 0.000000 -41.892400 1.165306 -2.621532 -7.238091 -0.244556 -3.009266 -4.400136 -5.334489 -3.198170 0.296230 11.581763 -12.606471 -14.119015 -2.004202 -0.037901 -2.152547 0.000000 0.000000 0.000000 2.177165 6.924554 3.155635 -76.442089 7.070492 -2.980772 -1.274777 -49.844608 -0.043293 23.089931 -11.977891 -2.516611 -0.175428 0.212620 -0.000000 0.000000 0.000000 0.000000 0.000000 0.000000 0.000000 10.909408 -8.600421 2.874457 76.415872 6.678529 -2.918283 1.696001 42.270673 -0.018643 -11.086842 12.584310 -1.269582 0.147665 -0.280434 0.000000 0.000000 0.000000 0.000000 0.000000 0.000000 0.000000 
